<svg width="38" height="38" viewBox="0 0 38 38" fill="none" xmlns="http://www.w3.org/2000/svg">
<path fill-rule="evenodd" clip-rule="evenodd" d="M16.3293 0.141998L22.6585 0.428812L22.9384 0.429144C22.9603 0.43014 22.9691 0.434124 22.9726 0.450058L22.9747 0.470307L22.975 0.500516L30.3801 4.3008L30.4495 4.3444C30.5005 4.38019 30.5428 4.41929 30.5904 4.46962L30.6966 4.58761L36.1397 11.758V11.8297C36.1397 11.87 36.1597 11.8876 36.1773 11.9081L36.1931 11.9305L36.203 11.9731V12.0448L36.2088 12.0785C36.2161 12.0972 36.2289 12.1096 36.2405 12.1232L36.2564 12.1456L36.2663 12.1882V12.2599L37.9752 20.5058L37.9931 20.6103C38.0176 20.8136 37.9753 20.9867 37.893 21.1901L37.8486 21.2945L33.6713 28.8234L33.6164 28.9159C33.4427 29.1777 33.188 29.2999 32.8872 29.3217L32.7852 29.3253L26.3927 28.3932L25.4434 31.1179L25.57 36.7825L25.566 36.8885C25.537 37.2715 25.3484 37.5891 25.0003 37.7863C24.8737 37.858 24.7472 37.858 24.6839 37.858C24.4623 37.858 24.2408 37.7482 24.0617 37.5767L23.9876 37.4995L18.3547 30.616L11.551 30.6154C11.5166 30.6131 11.5065 30.6016 11.4558 30.5443L11.4336 30.5397C11.4153 30.5328 11.3926 30.5156 11.3926 30.4726C11.3451 30.4726 11.3332 30.4322 11.3035 30.4121L11.266 30.4009L11.1394 30.2569V30.1858L7.46845 23.5173L1.26584 20.7209L1.18815 20.6807C0.934326 20.5326 0.735439 20.2475 0.701376 19.95L0.696212 19.8605L0 11.614L0.000506336 11.0335C0.00253168 11.0151 0.0126584 10.9692 0.063292 10.9692C0.063292 10.9692 0.063292 10.8975 0.126584 10.8975C0.126584 10.8572 0.14661 10.8395 0.164133 10.8191L0.179987 10.7967L0.189876 10.7541L7.02541 2.86673L7.06288 2.83117L7.11524 2.79287C7.13002 2.78138 7.14143 2.7696 7.14739 2.75282L7.15199 2.72332H7.21528L7.26275 2.71212L7.35769 2.66282L7.40516 2.65162L16.0762 0.141998H16.3293ZM18.26 25.2862L14.4914 28.4596H18.771L18.8667 28.4662C19.0576 28.4924 19.244 28.5946 19.3989 28.7426L19.4736 28.8202L22.2202 32.2099L20.1763 26.0795L20.0007 26.057C19.4221 25.9682 18.8545 25.7362 18.4052 25.4015L18.26 25.2862ZM33.9746 24.1132L23.3525 23.4638C23.1747 24.3432 22.6634 25.0324 22.0271 25.5313L21.8983 25.6286L23.5422 30.7519L23.5427 30.7086C23.5442 30.6653 23.5503 30.622 23.5745 30.5787L23.6054 30.5354L24.8993 26.7707C25.044 26.413 25.4071 26.1745 25.7417 26.1962L32.3307 27.1439L33.9746 24.1132L23.3525 23.4638L33.9746 24.1132ZM17.005 21.4749L12.5393 18.7265C12.0109 19.2665 11.3182 19.6176 10.5123 19.662L10.3379 19.6667H10.0234L9.01701 22.5597L12.0361 28.2011L17.0679 23.7893L17.0548 23.493C17.0226 23.1065 16.9421 22.7478 16.9421 22.3428C16.9421 22.1258 16.9774 21.9088 16.9951 21.6918L17.005 21.4749L12.5393 18.7265L17.005 21.4749ZM34.7993 13.9892L23.5086 21.3972V21.4692L35.1798 22.1884L36.0679 20.5342L34.7993 13.9892ZM1.93207 13.0785L2.44222 18.9671L7.54375 21.0955L8.37274 18.6833L8.26477 18.5989C7.59156 18.0447 7.08892 17.0972 7.03787 15.9649L7.03359 15.7745V15.5617L1.93207 13.0785ZM20.4876 12.8961L13.6531 15.8681L13.6459 16.0856C13.6321 16.3031 13.5999 16.5205 13.5631 16.738L13.5253 16.9555L17.9327 19.6376L18.051 19.51C18.578 18.9703 19.2873 18.6012 20.0542 18.497L20.2322 18.4777L21.2541 13.8384L21.1374 13.7504C20.9098 13.5618 20.7182 13.3018 20.5625 13.0317L20.4876 12.8961ZM32.6864 13.0971L26.4674 11.8032C26.0985 13.4048 24.8363 14.669 23.3154 14.7465L23.1675 14.7503H22.8502L21.8983 19.1348L22.0069 19.174C22.1873 19.2526 22.363 19.3941 22.511 19.546L22.5963 19.638L32.6864 13.0971L26.4674 11.8032L32.6864 13.0971ZM22.0004 3.78612L13.3644 13.8073L19.8414 11.0157V10.8725L19.8445 10.7056C19.9072 9.04554 20.8994 7.66069 22.2456 7.25884L22.3814 7.22195L22.0004 3.78612ZM7.28524 5.60783L2.4153 11.1195L7.60563 13.6248L7.69573 13.4818C7.91662 13.1491 8.21073 12.8261 8.54791 12.58L8.69496 12.4795L7.28524 5.60783ZM16.5882 1.96407L8.85593 4.24035L10.377 11.8517L10.5671 11.8594C11.0101 11.8949 11.4489 12.05 11.8536 12.2576L12.0249 12.3496L20.7712 2.17747L16.5882 1.96407ZM23.8305 3.05722L24.2722 7.20885L24.4222 7.27648C25.3104 7.70003 26.0335 8.46355 26.3636 9.46364L26.4177 9.64256L33.1695 11.0742L29.4465 6.13515L23.8305 3.05722Z" fill="#F44336"/>
</svg>
