<svg width="9" height="9" viewBox="0 0 9 9" fill="none" xmlns="http://www.w3.org/2000/svg">
<path d="M7.74609 5.18555C7.99609 5.35742 8.19922 5.57422 8.35547 5.83594C8.51172 6.09375 8.58984 6.39844 8.58984 6.75C8.58984 7.17188 8.5 7.5293 8.32031 7.82227C8.14453 8.11133 7.89062 8.33984 7.55859 8.50781C7.20703 8.6875 6.80078 8.81445 6.33984 8.88867C5.88281 8.96289 5.34375 9 4.72266 9H0.404297V8.54297C0.525391 8.53125 0.677734 8.51367 0.861328 8.49023C1.04492 8.4668 1.17383 8.43945 1.24805 8.4082C1.39258 8.34961 1.49023 8.27344 1.54102 8.17969C1.5957 8.08203 1.62305 7.95703 1.62305 7.80469V1.94531C1.62305 1.80469 1.60156 1.6875 1.55859 1.59375C1.51562 1.5 1.41211 1.41797 1.24805 1.34766C1.12695 1.29687 0.986328 1.25586 0.826172 1.22461C0.666016 1.18945 0.525391 1.16211 0.404297 1.14258V0.685547H4.92188C6.05859 0.685547 6.87891 0.841797 7.38281 1.1543C7.88672 1.4668 8.13867 1.92773 8.13867 2.53711C8.13867 2.81836 8.08203 3.06641 7.96875 3.28125C7.85547 3.49219 7.69336 3.67578 7.48242 3.83203C7.29102 3.97656 7.0625 4.10156 6.79688 4.20703C6.53125 4.3125 6.24609 4.40039 5.94141 4.4707V4.58203C6.24609 4.61328 6.5625 4.68164 6.89062 4.78711C7.21875 4.88867 7.50391 5.02148 7.74609 5.18555ZM5.85938 2.68359C5.85938 2.22266 5.72852 1.86328 5.4668 1.60547C5.20898 1.34766 4.82031 1.21875 4.30078 1.21875C4.22656 1.21875 4.12891 1.22266 4.00781 1.23047C3.89062 1.23438 3.78906 1.23828 3.70312 1.24219V4.32422H4.00781C4.64062 4.32422 5.10742 4.17773 5.4082 3.88477C5.70898 3.58789 5.85938 3.1875 5.85938 2.68359ZM6.26953 6.67383C6.26953 6.0957 6.09766 5.65234 5.75391 5.34375C5.41016 5.03516 4.91602 4.88086 4.27148 4.88086C4.19727 4.88086 4.09766 4.88477 3.97266 4.89258C3.85156 4.89648 3.76172 4.90039 3.70312 4.9043V7.94531C3.73828 8.08984 3.84766 8.21289 4.03125 8.31445C4.21484 8.41211 4.4375 8.46094 4.69922 8.46094C5.16406 8.46094 5.54102 8.30469 5.83008 7.99219C6.12305 7.67969 6.26953 7.24023 6.26953 6.67383Z" fill="#808080"/>
</svg>
