<svg width="10" height="9" viewBox="0 0 10 9" fill="none" xmlns="http://www.w3.org/2000/svg">
<path d="M1.71875 0.1875C1.97266 0.1875 2.1875 0.402344 2.1875 0.65625V1.59375C2.1875 1.86719 1.97266 2.0625 1.71875 2.0625H0.78125C0.507812 2.0625 0.3125 1.86719 0.3125 1.59375V0.65625C0.3125 0.402344 0.507812 0.1875 0.78125 0.1875H1.71875ZM9.375 0.5C9.70703 0.5 10 0.792969 10 1.125C10 1.47656 9.70703 1.75 9.375 1.75H3.75C3.39844 1.75 3.125 1.47656 3.125 1.125C3.125 0.792969 3.39844 0.5 3.75 0.5H9.375ZM9.375 3.625C9.70703 3.625 10 3.91797 10 4.25C10 4.60156 9.70703 4.875 9.375 4.875H3.75C3.39844 4.875 3.125 4.60156 3.125 4.25C3.125 3.91797 3.39844 3.625 3.75 3.625H9.375ZM9.375 6.75C9.70703 6.75 10 7.04297 10 7.375C10 7.72656 9.70703 8 9.375 8H3.75C3.39844 8 3.125 7.72656 3.125 7.375C3.125 7.04297 3.39844 6.75 3.75 6.75H9.375ZM0.3125 3.78125C0.3125 3.52734 0.507812 3.3125 0.78125 3.3125H1.71875C1.97266 3.3125 2.1875 3.52734 2.1875 3.78125V4.71875C2.1875 4.99219 1.97266 5.1875 1.71875 5.1875H0.78125C0.507812 5.1875 0.3125 4.99219 0.3125 4.71875V3.78125ZM1.71875 6.4375C1.97266 6.4375 2.1875 6.65234 2.1875 6.90625V7.84375C2.1875 8.11719 1.97266 8.3125 1.71875 8.3125H0.78125C0.507812 8.3125 0.3125 8.11719 0.3125 7.84375V6.90625C0.3125 6.65234 0.507812 6.4375 0.78125 6.4375H1.71875Z" fill="#808080"/>
</svg>
