<svg width="14" height="15" viewBox="0 0 14 15" fill="none" xmlns="http://www.w3.org/2000/svg">
<path d="M12 0.304932C13.0938 0.304932 14 1.21118 14 2.30493V12.3049C14 13.4299 13.0938 14.3049 12 14.3049H2C0.875 14.3049 0 13.4299 0 12.3049V2.30493C0 1.21118 0.875 0.304932 2 0.304932H12ZM10.5938 5.92993C10.9375 5.58618 10.9375 5.05493 10.5938 4.71118C10.25 4.36743 9.71875 4.36743 9.375 4.71118L6 8.08618L4.59375 6.71118C4.25 6.36743 3.71875 6.36743 3.375 6.71118C3.03125 7.05493 3.03125 7.58618 3.375 7.92993L5.375 9.92993C5.71875 10.2737 6.25 10.2737 6.59375 9.92993L10.5938 5.92993Z" fill="#1AAB2B"/>
</svg>
