<svg width="13" height="14" viewBox="0 0 13 14" fill="none" xmlns="http://www.w3.org/2000/svg">
<path d="M12.4414 1.47095C13 2.02954 13 2.91821 12.4414 3.47681L11.6797 4.23853L9.19141 1.75024L9.95312 0.988525C10.5117 0.429932 11.4004 0.429932 11.959 0.988525L12.4414 1.47095ZM4.36719 6.57446L8.60742 2.33423L11.0957 4.82251L6.85547 9.06274C6.70312 9.21509 6.5 9.34204 6.29688 9.41821L4.03711 10.1545C3.80859 10.2307 3.58008 10.1799 3.42773 10.0022C3.25 9.84985 3.19922 9.59595 3.27539 9.39282L4.01172 7.13306C4.08789 6.92993 4.21484 6.72681 4.36719 6.57446ZM4.875 2.05493C5.30664 2.05493 5.6875 2.43579 5.6875 2.86743C5.6875 3.32446 5.30664 3.67993 4.875 3.67993H2.4375C1.98047 3.67993 1.625 4.06079 1.625 4.49243V10.9924C1.625 11.4495 1.98047 11.8049 2.4375 11.8049H8.9375C9.36914 11.8049 9.75 11.4495 9.75 10.9924V8.55493C9.75 8.12329 10.1055 7.74243 10.5625 7.74243C10.9941 7.74243 11.375 8.12329 11.375 8.55493V10.9924C11.375 12.3381 10.2832 13.4299 8.9375 13.4299H2.4375C1.06641 13.4299 0 12.3381 0 10.9924V4.49243C0 3.14673 1.06641 2.05493 2.4375 2.05493H4.875Z" fill="#F44336"/>
</svg>
