<svg width="8" height="9" viewBox="0 0 8 9" fill="none" xmlns="http://www.w3.org/2000/svg">
<path d="M0.642578 9L0.742188 8.57227C0.855469 8.56836 1.00977 8.55664 1.20508 8.53711C1.40039 8.51367 1.55078 8.48438 1.65625 8.44922C1.80859 8.39844 1.92383 8.32227 2.00195 8.2207C2.08398 8.11523 2.14062 7.99414 2.17188 7.85742L3.51367 2.04492C3.5332 1.96289 3.54688 1.89453 3.55469 1.83984C3.5625 1.78516 3.56641 1.74414 3.56641 1.7168C3.56641 1.55273 3.47461 1.42578 3.29102 1.33594C3.11133 1.24219 2.83398 1.16797 2.45898 1.11328L2.55859 0.685547H7.16992L7.07031 1.11328C6.94531 1.12109 6.78516 1.14063 6.58984 1.17188C6.39453 1.19922 6.24805 1.22852 6.15039 1.25977C5.99023 1.31055 5.87109 1.39062 5.79297 1.5C5.71875 1.60547 5.66602 1.72461 5.63477 1.85742L4.29297 7.67578C4.27734 7.74219 4.26367 7.80469 4.25195 7.86328C4.24414 7.92188 4.24023 7.9668 4.24023 7.99805C4.24023 8.19336 4.33008 8.33008 4.50977 8.4082C4.69336 8.48242 4.97461 8.53711 5.35352 8.57227L5.25391 9H0.642578Z" fill="#808080"/>
</svg>
