<svg width="11" height="10" viewBox="0 0 11 10" fill="none" xmlns="http://www.w3.org/2000/svg">
<path d="M1.07422 1.36328C1.07422 1.08984 1.28906 0.894531 1.54297 0.894531H2.16797C2.44141 0.894531 2.63672 1.08984 2.63672 1.36328V3.6875H2.94922C3.22266 3.6875 3.41797 3.90234 3.41797 4.15625C3.41797 4.42969 3.22266 4.625 2.94922 4.625H1.38672C1.13281 4.625 0.917969 4.42969 0.917969 4.15625C0.917969 3.90234 1.13281 3.6875 1.38672 3.6875H1.69922V1.83203H1.54297C1.28906 1.83203 1.07422 1.61719 1.07422 1.36328ZM2.30469 6.92969C2.1875 6.77344 1.95312 6.79297 1.83594 6.94922L1.62109 7.24219C1.46484 7.45703 1.17188 7.51562 0.976562 7.35938C0.761719 7.20312 0.703125 6.91016 0.859375 6.71484L1.07422 6.40234C1.54297 5.75781 2.48047 5.69922 3.00781 6.30469C3.4375 6.77344 3.41797 7.49609 2.98828 7.96484L2.30469 8.6875H2.96875C3.22266 8.6875 3.4375 8.90234 3.4375 9.15625C3.4375 9.42969 3.22266 9.625 2.96875 9.625H1.25C1.05469 9.625 0.878906 9.52734 0.820312 9.35156C0.742188 9.17578 0.761719 8.98047 0.898438 8.84375L2.30469 7.32031C2.40234 7.20312 2.40234 7.04688 2.30469 6.92969ZM10 1.5C10.332 1.5 10.625 1.79297 10.625 2.125C10.625 2.47656 10.332 2.75 10 2.75H5C4.64844 2.75 4.375 2.47656 4.375 2.125C4.375 1.79297 4.64844 1.5 5 1.5H10ZM10 4.625C10.332 4.625 10.625 4.91797 10.625 5.25C10.625 5.60156 10.332 5.875 10 5.875H5C4.64844 5.875 4.375 5.60156 4.375 5.25C4.375 4.91797 4.64844 4.625 5 4.625H10ZM10 7.75C10.332 7.75 10.625 8.04297 10.625 8.375C10.625 8.72656 10.332 9 10 9H5C4.64844 9 4.375 8.72656 4.375 8.375C4.375 8.04297 4.64844 7.75 5 7.75H10Z" fill="#808080"/>
</svg>
