<svg width="11" height="10" viewBox="0 0 11 10" fill="none" xmlns="http://www.w3.org/2000/svg">
<path d="M6 0.875C3.22656 0.875 1 2.71094 1 4.9375C1 5.875 1.37109 6.73438 2.01562 7.41797C1.74219 8.17969 1.13672 8.84375 1.11719 8.84375C0.980469 8.98047 0.960938 9.17578 1.01953 9.35156C1.09766 9.52734 1.27344 9.625 1.46875 9.625C2.66016 9.625 3.61719 9.13672 4.18359 8.72656C4.75 8.90234 5.35547 9 6 9C8.75391 9 11 7.18359 11 4.9375C11 2.71094 8.75391 0.875 6 0.875ZM6 8.0625C5.47266 8.0625 4.94531 7.98438 4.45703 7.82812L4.00781 7.69141L3.63672 7.96484C3.36328 8.16016 2.97266 8.375 2.50391 8.53125C2.66016 8.29688 2.79688 8.02344 2.89453 7.75L3.10938 7.20312L2.69922 6.77344C2.34766 6.40234 1.9375 5.77734 1.9375 4.9375C1.9375 3.21875 3.75391 1.8125 6 1.8125C8.22656 1.8125 10.0625 3.21875 10.0625 4.9375C10.0625 6.67578 8.22656 8.0625 6 8.0625Z" fill="#F44336"/>
</svg>
