<svg width="13" height="13" viewBox="0 0 13 13" fill="none" xmlns="http://www.w3.org/2000/svg">
<path d="M12.25 3.25C12.25 4.69922 11.0742 5.875 9.625 5.875C8.91406 5.875 8.25781 5.60156 7.79297 5.16406L5.22266 6.44922C5.22266 6.53125 5.22266 6.64062 5.22266 6.75C5.22266 6.85938 5.22266 6.96875 5.22266 7.07812L7.79297 8.36328C8.25781 7.92578 8.91406 7.625 9.625 7.625C11.0742 7.625 12.25 8.80078 12.25 10.25C12.25 11.6992 11.0742 12.875 9.625 12.875C8.14844 12.875 7 11.6992 7 10.25C7 10.1406 7 10.0312 7 9.94922L4.42969 8.66406C3.96484 9.10156 3.30859 9.375 2.625 9.375C1.14844 9.375 0 8.19922 0 6.75C0 5.30078 1.14844 4.125 2.625 4.125C3.30859 4.125 3.96484 4.42578 4.42969 4.86328L7 3.57812C7 3.46875 7 3.35938 7 3.25C7 1.80078 8.14844 0.625 9.625 0.625C11.0742 0.625 12.25 1.80078 12.25 3.25ZM2.59766 7.625C3.08984 7.625 3.47266 7.24219 3.47266 6.75C3.47266 6.28516 3.08984 5.875 2.59766 5.875C2.13281 5.875 1.72266 6.28516 1.72266 6.75C1.72266 7.24219 2.13281 7.625 2.59766 7.625ZM9.625 2.375C9.13281 2.375 8.75 2.78516 8.75 3.25C8.75 3.74219 9.13281 4.125 9.625 4.125C10.0898 4.125 10.5 3.74219 10.5 3.25C10.5 2.78516 10.0898 2.375 9.625 2.375ZM9.625 11.125C10.0898 11.125 10.5 10.7422 10.5 10.25C10.5 9.78516 10.0898 9.375 9.625 9.375C9.13281 9.375 8.75 9.78516 8.75 10.25C8.75 10.7422 9.13281 11.125 9.625 11.125Z" fill="#F44336"/>
</svg>
