<svg width="14" height="16" viewBox="0 0 14 16" fill="none" xmlns="http://www.w3.org/2000/svg">
<path d="M10.3125 9.75C9.63867 9.75 9.02344 9.98438 8.55469 10.3652L5.53711 8.49023C5.5957 8.31445 5.5957 8.10938 5.5957 7.875C5.5957 7.66992 5.5957 7.46484 5.53711 7.28906L8.55469 5.41406C9.02344 5.79492 9.63867 6 10.3125 6C11.8652 6 13.125 4.76953 13.125 3.1875C13.125 1.63477 11.8652 0.375 10.3125 0.375C8.73047 0.375 7.5 1.63477 7.5 3.1875C7.5 3.42188 7.5 3.62695 7.55859 3.80273L4.54102 5.67773C4.07227 5.29688 3.45703 5.0625 2.8125 5.0625C1.23047 5.0625 0 6.32227 0 7.875C0 9.45703 1.23047 10.6875 2.8125 10.6875C3.45703 10.6875 4.07227 10.4824 4.54102 10.1016L7.55859 11.9766C7.5 12.1523 7.5 12.3574 7.5 12.5918V12.5625C7.5 14.1445 8.73047 15.375 10.3125 15.375C11.8652 15.375 13.125 14.1445 13.125 12.5625C13.125 11.0098 11.8652 9.75 10.3125 9.75Z" fill="white"/>
</svg>
