<svg width="16" height="16" viewBox="0 0 16 16" fill="none" xmlns="http://www.w3.org/2000/svg">
<path d="M0.5 7.875C0.5 3.74414 3.83984 0.375 8 0.375C12.1309 0.375 15.5 3.74414 15.5 7.875C15.5 12.0352 12.1309 15.375 8 15.375C3.83984 15.375 0.5 12.0352 0.5 7.875ZM11.3691 6.58594C11.6914 6.26367 11.6914 5.76562 11.3691 5.44336C11.0469 5.12109 10.5488 5.12109 10.2266 5.44336L7.0625 8.60742L5.74414 7.31836C5.42188 6.99609 4.92383 6.99609 4.60156 7.31836C4.2793 7.64062 4.2793 8.13867 4.60156 8.46094L6.47656 10.3359C6.79883 10.6582 7.29688 10.6582 7.61914 10.3359L11.3691 6.58594Z" fill="white"/>
</svg>
