<svg width="13" height="11" viewBox="0 0 13 11" fill="none" xmlns="http://www.w3.org/2000/svg">
<path d="M11.8711 8.83398L7.29492 1.01367C6.92969 0.412109 6.04883 0.412109 5.70508 1.01367L1.10742 8.83398C0.763672 9.43555 1.19336 10.1875 1.90234 10.1875H11.0762C11.7852 10.1875 12.2148 9.43555 11.8711 8.83398ZM5.98438 3.48438C5.98438 3.20508 6.19922 2.96875 6.5 2.96875C6.7793 2.96875 7.01562 3.20508 7.01562 3.48438V6.23438C7.01562 6.53516 6.7793 6.75 6.5 6.75C6.24219 6.75 5.98438 6.53516 5.98438 6.23438V3.48438ZM6.5 8.8125C6.11328 8.8125 5.8125 8.51172 5.8125 8.14648C5.8125 7.78125 6.11328 7.48047 6.5 7.48047C6.86523 7.48047 7.16602 7.78125 7.16602 8.14648C7.16602 8.51172 6.86523 8.8125 6.5 8.8125Z" fill="#F44336"/>
</svg>
